# xmcd
#
# Track frame offsets:
#	182
#	10807
#	21597
#	30160
#	41927
#	53302
#	64172
#	74387
#	86637
#	100687
#	111490
#	121312
#
# Disc length: 1774 seconds
#
# Revision: 2
# Processed by: cddbd v1.4PL0 Copyright (c) Steve Scherf et al.
# Submitted via: MusicWizard 6.0.2
#
DISCID=9a06ec0c
DTITLE=Various Artist - The Country Collection Vol.4
DYEAR=1900
DGENRE=Country
TTITLE0=Patsy Cline - Honky Tonk Merry Go Round
TTITLE1=Waylon Jennings - Sally Was A Good Old Girl
TTITLE2=Conway Twitty - Blue Is The Way I Feel
TTITLE3=Willie Nelson - Is There Something On Your Mind
TTITLE4=B J Thomas - How Many Tears Willl It Take
TTITLE5=Donna Fargo - Wishful Thinking
TTITLE6=Faron Young - Hello Walls
TTITLE7=Stonewall Jackson - Ol' Blue
TTITLE8=Jimmy Dean - Release Me
TTITLE9=Faron Young - Wire Me Up
TTITLE10=BuckOwens - Rhythm and Booze
TTITLE11=Webb Pierce - High Geared Daddy
EXTD=ID3G:   2
EXTT0=
EXTT1=
EXTT2=
EXTT3=
EXTT4=
EXTT5=
EXTT6=
EXTT7=
EXTT8=
EXTT9=
EXTT10=
EXTT11=
PLAYORDER=
